<?xml version="1.0" encoding="utf-8"?><svg xmlns="http://www.w3.org/2000/svg" xmlns:xlink="http://www.w3.org/1999/xlink"><symbol id="arrow" viewBox="0 0 34.8 34.8" xml:space="preserve" xmlns="http://www.w3.org/2000/svg"><style>.aast0{fill:#bdc5c8}</style><path class="aast0" d="M10.5 16.7h11v1.9h-11z"/><path transform="rotate(45.001 20.12 15.583)" class="aast0" d="M16.3 14.6H24v1.9h-7.7z"/><path transform="rotate(-45.001 20.14 19.647)" class="aast0" d="M16.3 18.7H24v1.9h-7.7z"/><path class="aast0" d="M17.4 2c8.5 0 15.4 6.9 15.4 15.4s-6.9 15.4-15.4 15.4S2 25.9 2 17.4 8.9 2 17.4 2m0-2C7.8 0 0 7.8 0 17.4s7.8 17.4 17.4 17.4S34.8 27 34.8 17.4 27 0 17.4 0z"/><path class="aast0" d="M17.4 2c8.5 0 15.4 6.9 15.4 15.4s-6.9 15.4-15.4 15.4S2 25.9 2 17.4 8.9 2 17.4 2m0-2C7.8 0 0 7.8 0 17.4s7.8 17.4 17.4 17.4S34.8 27 34.8 17.4 27 0 17.4 0z"/></symbol><symbol viewBox="0 0 50 64" id="bell" xmlns="http://www.w3.org/2000/svg"><path d="M32.64 56.361v.05a7.562 7.562 0 01-2.238 5.367A7.669 7.669 0 0124.999 64c-2.027 0-3.97-.8-5.403-2.222a7.562 7.562 0 01-2.239-5.366v-.051H32.64zM25 0c1.896 0 3.434 1.528 3.434 3.41v3.856a17.548 17.548 0 0110.113 6.032 17.33 17.33 0 013.973 11.03v12.517l6.876 10.03a3.434 3.434 0 01-1.078 4.9 3.492 3.492 0 01-1.794.495H3.476c-.632 0-1.252-.17-1.794-.495a3.46 3.46 0 01-1.28-1.343 3.43 3.43 0 01.202-3.557l6.876-10.03V24.328a17.33 17.33 0 013.97-11.031 17.547 17.547 0 0110.113-6.033V3.413C21.563 1.528 23.102 0 25 0z"/></symbol><symbol viewBox="0 0 22 22" id="bullet" xmlns="http://www.w3.org/2000/svg"><g fill-rule="evenodd" transform="translate(1 1)"><rect width="20" height="20" rx="10"/><rect width="10" height="10" x="5" y="5" rx="5"/></g></symbol><symbol class="adcalendar-icon" viewBox="0 0 24 24" id="calendar" xmlns="http://www.w3.org/2000/svg"><path d="M18.094 0c.518 0 .937.42.937.938v.937h1.219A3.754 3.754 0 0124 5.625v5.344a.937.937 0 01-1.875 0V5.625A1.877 1.877 0 0020.25 3.75h-1.219v.938a.938.938 0 01-1.875-.001V3.75h-4.265v.938a.938.938 0 01-1.875-.001V3.75h-4.22v.938a.937.937 0 11-1.874-.001V3.75H3.75a1.877 1.877 0 00-1.875 1.875V20.25c0 1.034.841 1.875 1.875 1.875h7.172a.937.937 0 010 1.875H3.75A3.754 3.754 0 010 20.25V5.625a3.754 3.754 0 013.75-3.75h1.172V.937a.938.938 0 011.875.001v.937h4.219V.937a.938.938 0 011.875.001v.937h4.265V.937c0-.517.42-.937.938-.937zm.234 12.656A5.678 5.678 0 0124 18.328 5.678 5.678 0 0118.328 24a5.678 5.678 0 01-5.672-5.672 5.68 5.68 0 015.672-5.672zm0 1.875a3.802 3.802 0 00-3.797 3.797 3.802 3.802 0 003.797 3.797 3.8 3.8 0 003.797-3.797 3.802 3.802 0 00-3.797-3.797zm0 .938c.518 0 .938.42.938.937v.985h.422a.938.938 0 01-.001 1.875h-1.359a.937.937 0 01-.937-.938v-1.922c0-.518.42-.937.937-.937zM5.86 17.063a.938.938 0 110 1.878.938.938 0 010-1.879zm4.079 0a.938.938 0 11-.001 1.877.938.938 0 01.001-1.878zm0-4.079a.938.938 0 11-.002 1.876.938.938 0 01.002-1.876zm-4.079 0a.938.938 0 110 1.876.938.938 0 010-1.876zm12.235-4.078a.937.937 0 110 1.874.937.937 0 010-1.874zm-4.078 0a.938.938 0 11-.002 1.876.938.938 0 01.002-1.876zm-8.157 0a.938.938 0 110 1.876.938.938 0 010-1.876zm4.079 0a.938.938 0 11-.002 1.876.938.938 0 01.002-1.876z"/></symbol><symbol viewBox="0 0 24 20" id="camera" xmlns="http://www.w3.org/2000/svg"><path d="M22.133 3.993c-.6-.6-1.324-.9-2.171-.9h-2.688l-.611-1.63c-.152-.392-.43-.73-.834-1.014-.404-.284-.818-.426-1.242-.426H8.445c-.424 0-.838.142-1.241.426-.404.284-.682.622-.834 1.013l-.612 1.632H3.071c-.848 0-1.572.3-2.171.9-.6.6-.9 1.323-.9 2.17v10.75c0 .847.3 1.57.9 2.17.6.6 1.323.9 2.171.9h16.89c.848 0 1.572-.3 2.171-.9.6-.6.9-1.323.9-2.17V6.163c0-.847-.3-1.57-.9-2.17zm-6.82 11.343c-1.052 1.052-2.317 1.577-3.797 1.577s-2.745-.525-3.797-1.577c-1.051-1.052-1.577-2.317-1.577-3.797s.526-2.745 1.577-3.797c1.052-1.051 2.318-1.577 3.797-1.577 1.48 0 2.745.526 3.797 1.577 1.052 1.052 1.577 2.318 1.577 3.797 0 1.48-.525 2.745-1.577 3.797z"/><path d="M11.516 8.084c-.952 0-1.765.338-2.441 1.014a3.328 3.328 0 00-1.014 2.441c0 .952.338 1.766 1.014 2.441a3.328 3.328 0 002.441 1.014c.952 0 1.766-.338 2.441-1.014a3.326 3.326 0 001.014-2.44c0-.953-.338-1.766-1.014-2.442a3.326 3.326 0 00-2.44-1.014z"/></symbol><symbol viewBox="0 0 12 12" id="close" xmlns="http://www.w3.org/2000/svg"><path d="M7.426 6l4.279-4.278a1.011 1.011 0 000-1.427 1.011 1.011 0 00-1.427 0L6 4.574 1.721.295A1.01 1.01 0 00.295 1.722L4.574 6 .295 10.278a1.01 1.01 0 001.426 1.427L6 7.426l4.278 4.279a1.011 1.011 0 001.427 0 1.011 1.011 0 000-1.427L7.426 6z"/></symbol><symbol viewBox="0 0 12 12" id="cross" xmlns="http://www.w3.org/2000/svg"><path d="M7.426 6l4.279-4.278A1.008 1.008 0 1010.278.295L6 4.574 1.721.295A1.008 1.008 0 10.295 1.722L4.574 6 .295 10.278a1.009 1.009 0 001.426 1.427L6 7.426l4.278 4.279a1.008 1.008 0 101.427-1.427L7.426 6z"/></symbol><symbol viewBox="0 0 20 22" id="detail" xmlns="http://www.w3.org/2000/svg"><g fill-rule="evenodd"><rect width="20" height="2" y="3" rx="1"/><rect width="20" height="2" y="10" rx="1"/><rect width="20" height="2" y="17" rx="1"/><circle cx="6" cy="4" r="3.25"/><circle cx="13" cy="11" r="3.25"/><circle cx="9" cy="18" r="3.25"/></g></symbol><symbol viewBox="0 0 41 30" id="done" xmlns="http://www.w3.org/2000/svg"><path d="M40.733 4.474l-25.36 25.358a.569.569 0 01-.807 0L.167 15.433a.57.57 0 010-.807l3.499-3.499a.572.572 0 01.808 0L14.97 21.623 36.426.167a.572.572 0 01.808 0l3.499 3.499a.572.572 0 010 .808z"/></symbol><symbol viewBox="0 0 30 30" id="file" xmlns="http://www.w3.org/2000/svg"><path d="M1.875 27.188V2.813c0-.518.42-.938.938-.938h14.062v3.75c0 1.036.84 1.875 1.875 1.875h3.75v2.813h1.875v-3.75a.937.937 0 00-.272-.666L18.478.272A.938.938 0 0017.812 0h-15A2.813 2.813 0 000 2.813v24.375A2.812 2.812 0 002.813 30h9.374v-1.875H2.813a.938.938 0 01-.938-.938z"/><path d="M21.563 13.125a8.438 8.438 0 100 16.875 8.438 8.438 0 000-16.875zm0 15a6.562 6.562 0 110-13.125 6.562 6.562 0 010 13.125z"/><path d="M22.5 17.813h-1.875v2.812h-2.812V22.5h2.812v2.813H22.5V22.5h2.813v-1.875H22.5z"/></symbol><symbol viewBox="0 0 24 24" id="gear" xmlns="http://www.w3.org/2000/svg"><path d="M12.753 24h-1.506a2.213 2.213 0 01-2.21-2.21v-.509a9.712 9.712 0 01-1.504-.624l-.361.36a2.21 2.21 0 01-3.125 0l-1.065-1.064a2.21 2.21 0 010-3.125l.361-.361a9.632 9.632 0 01-.624-1.504h-.51A2.213 2.213 0 010 12.753v-1.506c0-1.218.991-2.21 2.21-2.21h.509c.165-.517.374-1.02.624-1.504l-.36-.361a2.208 2.208 0 010-3.125l1.064-1.065a2.21 2.21 0 013.125 0l.361.361c.483-.25.987-.459 1.504-.624v-.51C9.037.991 10.03 0 11.247 0h1.506c1.218 0 2.21.991 2.21 2.21v.509c.517.165 1.02.374 1.504.624l.361-.36a2.21 2.21 0 013.125 0l1.065 1.064c.85.85.875 2.25 0 3.125l-.361.361c.25.483.459.986.624 1.504h.51c1.218 0 2.209.992 2.209 2.21v1.506c0 1.218-.991 2.21-2.21 2.21h-.509a9.712 9.712 0 01-.624 1.504l.36.361a2.208 2.208 0 010 3.125l-1.064 1.065a2.21 2.21 0 01-3.125 0l-.361-.361c-.483.25-.987.459-1.504.624v.51A2.212 2.212 0 0112.753 24zm-4.985-4.82a8.312 8.312 0 002.148.892c.31.08.528.36.528.68v1.039c0 .442.36.803.803.803h1.506c.443 0 .803-.36.803-.803v-1.039c0-.32.217-.6.528-.68a8.312 8.312 0 002.148-.892.7.7 0 01.855.108l.736.735a.802.802 0 001.135 0l1.065-1.065a.8.8 0 000-1.135l-.735-.736a.704.704 0 01-.108-.855 8.312 8.312 0 00.892-2.148c.08-.31.36-.528.68-.528h1.039c.442 0 .803-.36.803-.803v-1.506a.804.804 0 00-.803-.803h-1.038a.703.703 0 01-.681-.528 8.312 8.312 0 00-.892-2.148.704.704 0 01.108-.855l.735-.735a.803.803 0 000-1.136l-1.065-1.065a.802.802 0 00-1.135 0l-.736.735a.702.702 0 01-.855.108 8.298 8.298 0 00-2.148-.892.704.704 0 01-.528-.68V2.209a.804.804 0 00-.803-.803h-1.506a.804.804 0 00-.803.803v1.039c0 .32-.217.6-.528.68a8.312 8.312 0 00-2.148.892.7.7 0 01-.855-.108l-.735-.735a.803.803 0 00-1.136 0L3.977 5.041a.8.8 0 000 1.135l.735.736a.702.702 0 01.108.855 8.312 8.312 0 00-.892 2.148.704.704 0 01-.68.528H2.209a.804.804 0 00-.803.803v1.506c0 .443.36.803.803.803h1.039c.32 0 .6.217.68.528.195.754.495 1.476.892 2.148a.704.704 0 01-.108.855l-.735.735a.803.803 0 000 1.136l1.065 1.065a.8.8 0 001.135 0l.736-.735a.705.705 0 01.855-.108z"/><path d="M12 17.222A5.228 5.228 0 016.778 12 5.228 5.228 0 0112 6.778 5.228 5.228 0 0117.222 12 5.228 5.228 0 0112 17.222zm0-9.038c-2.104 0-3.816 1.712-3.816 3.816S9.896 15.816 12 15.816s3.816-1.712 3.816-3.816S14.104 8.184 12 8.184z"/></symbol><symbol viewBox="0 0 64 64" id="information" xmlns="http://www.w3.org/2000/svg"><path d="M31.997 0A31.999 31.999 0 009.374 54.629 31.999 31.999 0 0064 32 32 32 0 0032 0h-.003zm6.66 49.59a103.09 103.09 0 01-3.94 1.484 10.4 10.4 0 01-3.42.513c-1.99 0-3.543-.488-4.649-1.46a4.709 4.709 0 01-1.654-3.702 13 13 0 01.12-1.787 22.2 22.2 0 01.397-2.056l2.062-7.28c.18-.698.34-1.362.462-1.98a8.688 8.688 0 00.188-1.716c0-.924-.195-1.574-.578-1.943-.386-.365-1.112-.542-2.203-.542a5.778 5.778 0 00-1.636.242c-.556.17-1.036.326-1.434.477l.546-2.243a49.492 49.492 0 013.875-1.408c1.228-.398 2.394-.593 3.492-.593 1.98 0 3.507.48 4.583 1.434 1.07.957 1.611 2.203 1.611 3.728 0 .317-.04.874-.112 1.672a11.24 11.24 0 01-.411 2.196l-2.052 7.26a20.569 20.569 0 00-.451 1.993 10.54 10.54 0 00-.199 1.698c0 .964.217 1.621.65 1.971.426.35 1.174.524 2.24.524a6.5 6.5 0 001.693-.26c.629-.173 1.084-.328 1.373-.462l-.553 2.24zm-.361-29.465a4.893 4.893 0 01-3.456 1.332 4.947 4.947 0 01-3.468-1.336 4.256 4.256 0 01-1.444-3.229c0-1.26.491-2.344 1.444-3.24a4.911 4.911 0 013.468-1.347c1.347 0 2.502.448 3.456 1.347.953.896 1.434 1.98 1.434 3.24 0 1.264-.48 2.344-1.434 3.233z"/></symbol><symbol viewBox="0 0 32 44" id="junior" xmlns="http://www.w3.org/2000/svg"><path d="M15.385 17.6l.608-4.297-1.438-.207-.726 5.133a.74.74 0 00.17.585c.138.16.338.253.549.253h2.178V17.6h-1.341zm2.28 1.68a4.192 4.192 0 01-2.994 1.253h-.124V22h.124a5.629 5.629 0 004.021-1.682l-1.027-1.037zm7.05-7.547h-.726V13.2h.726c.8 0 1.452.658 1.452 1.467s-.651 1.466-1.452 1.466h-.726V17.6h.726c1.602 0 2.905-1.316 2.905-2.933 0-1.618-1.303-2.934-2.905-2.934zM7.285 13.2h.726v-1.467h-.726c-1.602 0-2.905 1.316-2.905 2.934 0 1.617 1.303 2.933 2.905 2.933h.726v-1.467h-.726a1.461 1.461 0 01-1.452-1.466c0-.81.651-1.467 1.452-1.467z"/><path d="M28.155 10.006a2.927 2.927 0 00-.914-1.287c.209-.392.326-.83.342-1.288a2.933 2.933 0 00-.783-2.102 2.91 2.91 0 00-1.361-.825l.003-.105c-.002-1.616-1.305-2.93-2.906-2.93-.15.022-.258.009-.385.026A2.915 2.915 0 0019.631 0a2.88 2.88 0 00-1.816.647 2.878 2.878 0 00-1.238-.583 2.86 2.86 0 00-2.39.583A2.89 2.89 0 0012.364 0 2.912 2.912 0 009.85 1.494a2.902 2.902 0 00-3.08 1.814A2.95 2.95 0 006.562 4.5a2.885 2.885 0 00-1.328.794 2.927 2.927 0 00-.817 2.088c.008.467.129.926.344 1.334a2.956 2.956 0 00-.915 3.292c.295.82.929 1.46 1.739 1.757l.495-1.38a1.471 1.471 0 010-2.757.737.737 0 00.248-1.225 1.482 1.482 0 01-.46-1.046 1.466 1.466 0 01.41-1.044c.27-.281.63-.44 1.007-.446h.138a.724.724 0 00.598-.318.74.74 0 00.08-.678 1.373 1.373 0 01.015-1.016 1.449 1.449 0 011.89-.813.724.724 0 00.973-.49 1.457 1.457 0 011.388-1.085c.49.001.942.247 1.211.66.134.205.36.33.605.33h.001a.728.728 0 00.606-.328 1.442 1.442 0 012.421 0 .724.724 0 00.605.328h.002c.244 0 .47-.125.605-.33.268-.413.72-.66 1.204-.66.653.003 1.226.45 1.395 1.085a.735.735 0 00.377.466.717.717 0 00.595.024 1.43 1.43 0 01.541-.107h.002c.8 0 1.452.658 1.452 1.457a1.404 1.404 0 01-.09.48.733.733 0 00.678.995h.125a1.464 1.464 0 011.428 1.515 1.461 1.461 0 01-.46 1.022.738.738 0 00.249 1.225c.405.148.723.468.87.877a1.473 1.473 0 01-.87 1.88l.496 1.379c1.506-.552 2.286-2.238 1.74-3.759z"/><ellipse cx="11.643" cy="14.667" rx="1.453" ry="1.467"/><ellipse cx="20.357" cy="14.667" rx="1.453" ry="1.467"/><path d="M24.678 12.236l-1.453-4.4a.729.729 0 00-.522-.482.716.716 0 00-.68.195 2.34 2.34 0 01-3.328.002.722.722 0 00-1.03-.002 2.325 2.325 0 01-1.663.697H16a2.33 2.33 0 01-1.665-.698.72.72 0 00-1.028 0 2.34 2.34 0 01-3.33 0 .72.72 0 00-.68-.195.73.73 0 00-.522.481l-1.453 4.4a.742.742 0 00-.035.285l.624 8.8a5.194 5.194 0 001.245 3.018l2.666 3.088a5.497 5.497 0 004.156 1.908h.039a5.51 5.51 0 004.163-1.905l2.682-3.099a5.187 5.187 0 001.227-3.009l.625-8.8a.733.733 0 00-.036-.284zm-2.04 8.98a3.697 3.697 0 01-.874 2.149l-2.68 3.095a4.056 4.056 0 01-3.072 1.407h-.029a4.051 4.051 0 01-3.067-1.407l-2.666-3.088a3.709 3.709 0 01-.89-2.158l-.614-8.654 1.09-3.306a3.75 3.75 0 001.805.458h.003a3.76 3.76 0 002.176-.691c.635.449 1.389.69 2.18.69h.002a3.75 3.75 0 002.177-.69 3.787 3.787 0 003.983.232l1.092 3.307-.615 8.657z"/><path d="M10.916 26.4v2.29l-5.223.701c-3.233.437-5.67 3.25-5.67 6.542V44h1.452v-8.067c0-2.561 1.896-4.749 4.41-5.088l5.853-.785a.73.73 0 00.63-.727V26.4h-1.452zm15.39 2.991l-5.222-.7V26.4H19.63v2.933c0 .368.27.679.63.728l5.853.784c2.515.34 4.41 2.527 4.41 5.088V44h1.453v-8.067c0-3.292-2.437-6.105-5.67-6.542zm-6.428 2.868a5.841 5.841 0 01-7.757 0l-.958 1.101A7.284 7.284 0 0016 35.2c1.781 0 3.5-.653 4.837-1.84l-.959-1.101z"/><path d="M5.833 38.133h1.453V44H5.833z"/><path d="M.749 39.6h5.81v1.467H.749zm23.966-1.467h1.453V44h-1.453z"/><path d="M25.441 39.6h5.81v1.467h-5.81zM10.916 29.333h1.453V44h-1.453zm8.715 0h1.453V44h-1.453z"/><path d="M8.292 35.2l1.86-5.634-1.377-.464-2.18 6.6a.741.741 0 00.101.66.724.724 0 00.59.305h4.357V35.2h-3.35zm17.111.5l-2.18-6.6-1.376.465 1.86 5.635h-3.35v1.467h4.358a.72.72 0 00.588-.305.736.736 0 00.1-.661zM9.1 38.133c-.6 0-1.089.494-1.089 1.1 0 .607.49 1.1 1.09 1.1.6 0 1.089-.493 1.089-1.1 0-.606-.489-1.1-1.09-1.1zm0 1.467a.366.366 0 01-.362-.367c0-.201.162-.366.363-.366.2 0 .363.165.363.366a.365.365 0 01-.363.367z"/></symbol><symbol viewBox="0 0 24 31" id="lamp" xmlns="http://www.w3.org/2000/svg"><path d="M11.99 3.865c4.479 0 8.123 3.645 8.123 8.124 0 3.351-1.516 5.374-2.623 6.851-.671.895-1.201 1.602-1.201 2.284 0 .286-.013.566-.036.833v5.062l-.003.048v.011a.65.65 0 01-.01.065l-.06.243a4.483 4.483 0 01-1.439 2.254 4.298 4.298 0 01-2.752 1.003c-1 0-1.978-.356-2.751-1.003a4.485 4.485 0 01-1.499-2.496l-.006-.033-.004-.033v-.011l-.003-.048v-5.062a9.482 9.482 0 01-.036-.833c0-.682-.53-1.389-1.2-2.284-.807-1.076-1.81-2.415-2.31-4.323a.598.598 0 111.158-.303c.44 1.681 1.326 2.864 2.109 3.908.773 1.031 1.44 1.922 1.44 3.002 0 .07.001.141.003.211h2.501V19.96a.598.598 0 111.197 0v1.375h2.5c.002-.07.003-.14.003-.211 0-1.08.668-1.97 1.44-3.001l.13-.172c1.037-1.389 2.255-3.128 2.255-5.962a6.935 6.935 0 00-6.927-6.926 6.915 6.915 0 00-6.578 4.75.598.598 0 11-1.136-.375 8.11 8.11 0 017.714-5.573zm2.834 23.752H9.155c.52 1.093 1.618 1.83 2.834 1.83 1.217 0 2.315-.737 2.835-1.83zm.232-2.542H8.923v1.345h6.133v-1.345zm0-2.543H8.923v1.346h6.133v-1.346zm-10.83-3.626a.598.598 0 11.847.846L3.945 20.88a.597.597 0 01-.846 0 .599.599 0 010-.846zm14.68 0a.598.598 0 01.846 0l1.128 1.128a.598.598 0 11-.846.846l-1.128-1.128a.598.598 0 010-.846zm-6.917-1.938a.6.6 0 010 1.197.6.6 0 010-1.197zm2.142-4.368a.598.598 0 110 1.197h-1.543v1.375a.598.598 0 11-1.197 0v-1.375H9.848a.598.598 0 110-1.197zM2.193 11.391a.598.598 0 110 1.197H.6a.598.598 0 110-1.197zm21.187 0a.598.598 0 110 1.197h-1.594a.598.598 0 110-1.197zm-18.916 0a.6.6 0 010 1.197.6.6 0 010-1.197zm-.952-7.88a.599.599 0 01.846 0L5.486 4.64a.598.598 0 11-.847.847L3.512 4.358a.599.599 0 010-.846zm16.109 0a.598.598 0 11.846.847L19.34 5.486a.597.597 0 01-.847 0 .599.599 0 010-.847zM11.989 0c.331 0 .599.268.599.599v1.594a.598.598 0 11-1.197 0V.6c0-.331.268-.599.598-.599z"/></symbol><symbol viewBox="0 0 24 24" id="magnifer" xmlns="http://www.w3.org/2000/svg"><path d="M10.57 0C4.74 0 0 4.741 0 10.57c0 5.827 4.741 10.568 10.57 10.568 5.827 0 10.568-4.74 10.568-10.569C21.138 4.741 16.398 0 10.57 0zm0 19.187c-4.753 0-8.619-3.866-8.619-8.618 0-4.752 3.866-8.618 8.618-8.618 4.752 0 8.618 3.866 8.618 8.618 0 4.752-3.866 8.618-8.618 8.618z"/><path d="M23.714 22.335l-5.593-5.594a.976.976 0 00-1.38 1.38l5.594 5.593a.974.974 0 001.38 0 .978.978 0 000-1.38z"/></symbol><symbol viewBox="0 0 32 44" id="middle" xmlns="http://www.w3.org/2000/svg"><path d="M15.784 15.888l-1.027-1.035-1.453 1.464a.735.735 0 000 1.035l1.453 1.464 1.027-1.035-.94-.947.94-.946zm-4.137 8.997v3.066a.73.73 0 01-.635.732l-6.536.819C1.916 29.822 0 32.025.02 34.62v9.295h1.453v-9.301a3.653 3.653 0 013.184-3.66l6.537-.819a2.19 2.19 0 001.907-2.19v-3.06h-1.453zm15.877 4.654l-6.534-.82a.732.732 0 01-.636-.738v-3.096h-1.453v3.09a2.191 2.191 0 001.908 2.196l6.537.82c1.829.229 3.197 1.802 3.183 3.665v9.259h1.452v-9.253c.02-2.601-1.897-4.803-4.457-5.123z"/><path d="M21.866 28.988l-.465 1.092A5.868 5.868 0 0116 33.668h-.007a5.869 5.869 0 01-5.4-3.59l-.465-1.09-1.335.578.465 1.09a7.317 7.317 0 006.734 4.476H16a7.32 7.32 0 006.736-4.476l.465-1.09-1.335-.578zm-4.016-9.881a6.142 6.142 0 01-2.752.655h-.554v1.464h.554c1.175 0 2.352-.28 3.403-.81l-.65-1.31zm3.96 2.851v1.463h.052zM15.997 0C10.39 0 5.829 4.598 5.829 10.248v2.196h1.453v-2.196c0-4.843 3.91-8.783 8.715-8.783s8.714 3.94 8.714 8.783v1.464h1.453v-1.464c0-5.65-4.56-10.246-10.167-10.246z"/><path d="M24.711 10.978h-.726a.73.73 0 00-.726.715l-.137 5.717c.018 2.776-1.572 5.355-4.058 6.571l-.017.01a.592.592 0 00-.064.028l-1.373.695a3.618 3.618 0 01-3.242 0l-1.46-.736c-2.48-1.213-4.069-3.79-4.05-6.591l-.124-4.962a.73.73 0 00-.726-.714h-.726c-1.602 0-2.905 1.313-2.905 2.928 0 1.614 1.303 2.927 2.905 2.927h.124c.04 3.275 1.937 6.295 4.86 7.725l1.453.732c.711.358 1.49.537 2.27.537a5.04 5.04 0 002.27-.537l.001-.001 1.445-.729c2.98-1.457 4.89-4.556 4.869-7.871l.014-.589h.124c1.602 0 2.905-1.313 2.905-2.927 0-1.615-1.303-2.928-2.906-2.928zm-17.43 5.124A1.46 1.46 0 015.83 14.64a1.46 1.46 0 011.453-1.464l.091 2.927h-.091zm17.43-.732h-.087l.07-2.927h.017a1.46 1.46 0 011.453 1.464 1.46 1.46 0 01-1.453 1.463z"/><path d="M23.06 8.207a2.885 2.885 0 00-2.596-1.62h-8.841a2.898 2.898 0 00-2.67 1.776L7.34 12.155l1.334.576 1.613-3.791a1.45 1.45 0 011.34-.888h8.834c.554 0 1.05.311 1.297.81l1.576 3.177 1.3-.656-1.576-3.176zm6.347-5.917A3.977 3.977 0 0027.134.23c-2.075-.739-4.363.36-5.098 2.454l1.369.488A2.543 2.543 0 0126.65 1.61c.64.228 1.153.694 1.446 1.31a2.565 2.565 0 01-2.338 3.668 2.213 2.213 0 01-.278 0l-.085 1.462a4.12 4.12 0 00.405 0h.002a4 4 0 003.766-2.684 4.028 4.028 0 00-.161-3.076z"/><path d="M14.544 10.98h-5.81a1.46 1.46 0 00-1.452 1.463v1.464c0 1.614 1.303 2.927 2.905 2.927h2.178c1.602 0 2.905-1.313 2.905-2.927V11.71a.73.73 0 00-.726-.732zm-.726 2.927a1.46 1.46 0 01-1.453 1.463h-2.178a1.46 1.46 0 01-1.453-1.463v-1.464h5.084v1.464zm9.441-2.927h-5.81a.73.73 0 00-.726.73v2.197c0 1.614 1.303 2.927 2.905 2.927h2.178c1.603 0 2.905-1.313 2.905-2.927v-1.464a1.46 1.46 0 00-1.452-1.464zm0 2.927a1.46 1.46 0 01-1.453 1.463h-2.178a1.46 1.46 0 01-1.453-1.463v-1.464h5.084v1.464z"/><path d="M14.544 10.979h2.905v1.464h-2.905z"/><ellipse cx="11.639" cy="13.175" rx="1.453" ry="1.464"/><ellipse cx="20.354" cy="13.175" rx="1.453" ry="1.464"/></symbol><symbol viewBox="0 0 12 10" id="next" xmlns="http://www.w3.org/2000/svg"><path d="M.675 4.043l-.02.004h8.03l-2.524-2.53a.657.657 0 01-.191-.467c0-.175.068-.341.191-.465l.393-.393A.651.651 0 017.018 0c.175 0 .34.068.464.191l4.327 4.327a.65.65 0 01.191.465.65.65 0 01-.191.466L7.482 9.776a.651.651 0 01-.464.191.652.652 0 01-.464-.191l-.393-.393a.65.65 0 010-.919L8.714 5.92H.666A.68.68 0 010 5.247v-.556c0-.361.313-.648.675-.648z"/></symbol><symbol viewBox="0 0 14 14" id="ok" xmlns="http://www.w3.org/2000/svg"><path d="M7 0a7 7 0 107 7 7 7 0 00-7-7zm1 8.86l-1.1 1.65L3.07 8l1.15-1.75 2.1 1.39L9 3.5l1.74 1.12z" fill-rule="evenodd" data-name="Слой 2"/></symbol><symbol id="pencil" viewBox="0 0 15.26 15.27" xmlns="http://www.w3.org/2000/svg"><defs><style>.ascls-1{fill:#bdc3cd}</style></defs><path class="ascls-1" transform="rotate(-45 6.263 9.156)" d="M.76 6.93H13.1v4.23H.76z"/><rect class="ascls-1" x="11.64" y=".66" width="3.05" height="4.33" rx=".55" transform="rotate(-45 12.487 2.938)"/><path class="ascls-1" d="M3.33 15.71H.83a.55.55 0 01-.55-.55v-2.51" transform="translate(-.28 -.44)"/></symbol><symbol viewBox="0 0 22 30" id="person" xmlns="http://www.w3.org/2000/svg"><path d="M14.19 15.235c6.801 1.273 7.69 3.284 7.798 10.342.007.451.01.53.012.49v.548S20.38 30 11 30c-9.38 0-11-3.385-11-3.385v-.726c.003.026.007-.05.014-.421l.003-.12c.124-6.873 1.067-8.854 7.794-10.113 0 0 .958 1.265 3.19 1.265 2.23 0 3.188-1.265 3.188-1.265zM11 0c4.968 0 5.824 3.284 5.824 7.336 0 4.052-2.607 7.336-5.824 7.336-3.216 0-5.824-3.284-5.824-7.336C5.176 3.284 6.033 0 11 0z"/></symbol><symbol viewBox="0 0 24 20" id="photocamera" xmlns="http://www.w3.org/2000/svg"><path d="M22.133 3.993c-.6-.6-1.324-.9-2.171-.9h-2.688l-.611-1.63c-.152-.392-.43-.73-.834-1.014-.404-.284-.818-.426-1.242-.426H8.445c-.424 0-.838.142-1.241.426-.404.284-.682.622-.834 1.013l-.612 1.632H3.071c-.848 0-1.572.3-2.171.9-.6.6-.9 1.323-.9 2.17v10.75c0 .847.3 1.57.9 2.17.6.6 1.323.9 2.171.9h16.89c.848 0 1.572-.3 2.171-.9.6-.6.9-1.323.9-2.17V6.163c0-.847-.3-1.57-.9-2.17zm-6.82 11.343c-1.052 1.052-2.317 1.577-3.797 1.577s-2.745-.525-3.797-1.577c-1.051-1.052-1.577-2.317-1.577-3.797s.526-2.745 1.577-3.797c1.052-1.051 2.318-1.577 3.797-1.577 1.48 0 2.745.526 3.797 1.577 1.052 1.052 1.577 2.318 1.577 3.797 0 1.48-.525 2.745-1.577 3.797z"/><path d="M11.516 8.084c-.952 0-1.765.338-2.441 1.014a3.328 3.328 0 00-1.014 2.441c0 .952.338 1.766 1.014 2.441a3.328 3.328 0 002.441 1.014c.952 0 1.766-.338 2.441-1.014a3.326 3.326 0 001.014-2.44c0-.953-.338-1.766-1.014-2.442a3.326 3.326 0 00-2.44-1.014z"/></symbol><symbol viewBox="0 0 64 64" id="pie" xmlns="http://www.w3.org/2000/svg"><path fill-rule="evenodd" clip-rule="evenodd" d="M61.152 18.784a31.839 31.839 0 012.822 11.936L64 32v.278C64 48.515 51.904 61.93 36.234 64V36.694l24.918-17.91zm-58.336.064A1987.436 1987.436 0 0026.118 35.45l1.62 1.139V64C12.368 61.952.448 48.998.01 33.178L0 32.282V32c0-4.493.928-8.768 2.598-12.65l.221-.505-.003.003zM32 0a31.946 31.946 0 0125.344 12.46L32 30.177 6.656 12.461A31.946 31.946 0 0132 0z"/></symbol><symbol viewBox="0 0 14 14" id="plus" xmlns="http://www.w3.org/2000/svg"><path fill-rule="evenodd" d="M7 0a1 1 0 011 1v5h5a1 1 0 010 2H8v5a1 1 0 01-2 0V8H1a1 1 0 010-2h5V1a1 1 0 011-1z"/></symbol><symbol viewBox="0 0 64 64" id="pyramid" xmlns="http://www.w3.org/2000/svg"><path fill-rule="evenodd" clip-rule="evenodd" d="M54.4 44.8L64 64H0l9.6-19.2h44.8zM43.2 22.4l8 16H12.8l8-16h22.4zM32 0l8 16H24l8-16z"/></symbol><symbol viewBox="0 0 14 14" id="rectangle" xmlns="http://www.w3.org/2000/svg"><path fill-rule="evenodd" d="M14 0v14H0z"/></symbol><symbol viewBox="0 0 32 44" id="senior" xmlns="http://www.w3.org/2000/svg"><path d="M14.87 18.333l1.81-4.876-1.36-.514-2.18 5.866a.742.742 0 00.084.676.725.725 0 00.597.315h2.905v-1.467H14.87zm9.845-6.6h-.726V13.2h.726c.8 0 1.452.658 1.452 1.467s-.651 1.466-1.452 1.466h-.726V17.6h.726c1.602 0 2.905-1.316 2.905-2.933 0-1.618-1.303-2.934-2.905-2.934zM7.285 13.2h.726v-1.467h-.726c-1.602 0-2.905 1.316-2.905 2.934 0 1.617 1.303 2.933 2.905 2.933h.726v-1.467h-.726a1.461 1.461 0 01-1.452-1.466c0-.81.651-1.467 1.452-1.467z"/><path d="M15.274 18.333h-2.905c-2.403 0-4.358 1.974-4.358 4.4a.73.73 0 00.727.734h2.905c2.403 0 4.357-1.974 4.357-4.4a.73.73 0 00-.726-.734zM11.643 22H9.555c.324-1.264 1.463-2.2 2.814-2.2h2.087c-.324 1.264-1.463 2.2-2.813 2.2z"/><path d="M18.179 18.333h-2.905a.73.73 0 00-.726.734c0 2.426 1.954 4.4 4.357 4.4h2.905a.73.73 0 00.726-.734c0-2.426-1.954-4.4-4.357-4.4zM18.905 22a2.916 2.916 0 01-2.814-2.2h2.088c1.35 0 2.49.936 2.812 2.2h-2.086z"/><ellipse cx="11.643" cy="14.667" rx="1.453" ry="1.467"/><ellipse cx="19.631" cy="14.667" rx="1.453" ry="1.467"/><path d="M21.084 5.133H19.63c-.24 0-.465.12-.6.322l-.251.371A3.334 3.334 0 0116 7.333a3.335 3.335 0 01-2.784-1.512l-.247-.367a.724.724 0 00-.6-.32h-1.453c-2.002 0-3.631 1.644-3.631 3.666v9.533a8.94 8.94 0 00.792 3.671l1.32-.61a7.438 7.438 0 01-.66-3.06V8.8c0-1.213.978-2.2 2.18-2.2h1.068l.025.04A4.778 4.778 0 0016 8.8a4.777 4.777 0 003.984-2.155l.03-.045h1.069c1.201 0 2.179.987 2.179 2.2v9.533c0 4.044-3.258 7.334-7.263 7.334h-.001a7.248 7.248 0 01-5.94-3.113l-1.188.843a8.698 8.698 0 007.128 3.736H16c4.805 0 8.715-3.947 8.715-8.8V8.8c0-2.022-1.629-3.667-3.631-3.667z"/><path d="M22.98 3.047A8.002 8.002 0 0016.726 0h-1.452a8.004 8.004 0 00-6.255 3.047C6.26 4.085 4.533 6.837 4.797 9.82l.312 3.447 1.448-.134-.313-3.445C6.033 7.31 7.452 5.12 9.694 4.362a.727.727 0 00.35-.255 6.547 6.547 0 015.23-2.64h1.452a6.55 6.55 0 015.23 2.64c.088.118.21.208.35.255a5.116 5.116 0 013.45 5.325l-.313 3.446 1.447.134.312-3.448c.265-2.982-1.462-5.734-4.222-6.772z"/><path d="M10.19 10.267h11.62v1.467H10.19zm.727 14.666v2.742a1.166 1.166 0 01-.996 1.15l-4.228.566c-3.233.437-5.67 3.25-5.67 6.542V44h1.452v-8.067c0-2.561 1.896-4.749 4.41-5.088l4.23-.565c1.282-.177 2.252-1.296 2.254-2.604v-2.743h-1.452zm15.389 4.458l-4.223-.565a1.165 1.165 0 01-.998-1.15v-2.743h-1.453v2.745a2.635 2.635 0 002.258 2.602l4.224.566c2.515.338 4.41 2.526 4.41 5.087V44h1.453v-8.067c0-3.292-2.437-6.105-5.67-6.542zM5.833 38.133h1.453V44H5.833zm18.882 0h1.453V44h-1.453z"/><path d="M20.537 28.85L16 34.086l-4.537-5.235-1.093.965 5.084 5.867a.719.719 0 001.093-.001l5.083-5.867-1.093-.965z"/><path d="M15.88 34.476l-3.802.64-2.677-6.081-1.326.596 2.905 6.6a.726.726 0 00.782.425l4.358-.733-.24-1.447z"/><path d="M22.6 29.035l-2.678 6.081-3.802-.64-.24 1.447 4.358.733a.728.728 0 00.784-.425l2.905-6.6-1.328-.596z"/><path d="M15.274 35.2h1.453V44h-1.453zm-8.715 4.4H.749a.73.73 0 00-.726.733V44h1.452v-2.933h4.358V44h1.452v-3.667a.73.73 0 00-.726-.733zm24.692 0h-5.81a.73.73 0 00-.726.733V44h1.452v-2.933h4.358V44h1.452v-3.667a.73.73 0 00-.726-.733zm-17.793-2.2c-.6 0-1.09.494-1.09 1.1 0 .606.49 1.1 1.09 1.1.6 0 1.09-.494 1.09-1.1 0-.606-.49-1.1-1.09-1.1zm0 1.467a.366.366 0 01-.363-.367c0-.202.163-.367.363-.367.2 0 .363.165.363.367a.365.365 0 01-.363.367z"/></symbol><symbol viewBox="0 0 14 8" id="small-arrow" xmlns="http://www.w3.org/2000/svg"><path d="M6.998 7.987a.974.974 0 01-.693-.288L.287 1.675A.982.982 0 011.673.287l5.325 5.331 5.324-5.33a.98.98 0 011.386 1.387L7.69 7.7a.972.972 0 01-.692.288z"/></symbol><symbol viewBox="0 0 64 64" id="star" xmlns="http://www.w3.org/2000/svg"><path d="M62.61 29.005c1.261-1.28 1.706-3.165 1.16-4.912a4.803 4.803 0 00-1.405-2.189 4.456 4.456 0 00-2.297-1.072l-15.497-2.349a1.972 1.972 0 01-.898-.382 2.102 2.102 0 01-.626-.776l-6.93-14.656A4.717 4.717 0 0034.423.715 4.404 4.404 0 0032 0c-1.762 0-3.34 1.024-4.114 2.669l-6.93 14.656a2.114 2.114 0 01-.627.776 1.975 1.975 0 01-.898.382l-15.5 2.349a4.453 4.453 0 00-2.298 1.073A4.799 4.799 0 00.23 24.096a4.97 4.97 0 00-.096 2.63c.204.869.64 1.659 1.254 2.279l11.215 11.408c.234.239.41.534.511.86.102.326.126.674.07 1.012l-2.641 16.109c-.235 1.417.122 2.796 1 3.884 1.365 1.696 3.748 2.208 5.656 1.165l13.86-7.606a1.99 1.99 0 011.886 0l13.858 7.606a4.425 4.425 0 002.136.557c1.353 0 2.64-.627 3.52-1.722.884-1.088 1.238-2.47 1.003-3.884l-2.645-16.11a2.21 2.21 0 01.07-1.01c.101-.327.277-.622.512-.861l11.215-11.408h-.003z"/></symbol></svg>